HIERARCHY
ROOT Hips
{
	OFFSET 46.560200 -33.670715 84.370094
	CHANNELS 6 Xposition Yposition Zposition Xrotation Yrotation Zrotation
	JOINT spine
	{
		OFFSET 0.000000 -0.359108 6.244789
		CHANNELS 3 Xrotation Yrotation Zrotation
		JOINT spine1
		{
			OFFSET 0.000000 0.000000 9.069412
			CHANNELS 3 Xrotation Yrotation Zrotation
			JOINT spine2
			{
				OFFSET 0.000000 -0.000004 8.690140
				CHANNELS 3 Xrotation Yrotation Zrotation
				JOINT Neck
				{
					OFFSET 0.000000 -1.063725 22.311203
					CHANNELS 3 Xrotation Yrotation Zrotation
					JOINT Head
					{
						OFFSET 0.000000 0.000000 6.740814
						CHANNELS 3 Xrotation Yrotation Zrotation
						End Site
						{
							OFFSET 0.000000 5.380968 16.316498
						}
					}
				}
				JOINT RightShoulder
				{
					OFFSET -3.659161 0.509514 9.384682
					CHANNELS 3 Xrotation Yrotation Zrotation
					JOINT RightArm
					{
						OFFSET 0.000000 -0.000004 12.308907
						CHANNELS 3 Xrotation Yrotation Zrotation
						JOINT RightArmRoll
						{
							OFFSET 0.000000 0.000000 6.213745
							CHANNELS 3 Xrotation Yrotation Zrotation
							JOINT RightForeArm
							{
								OFFSET 0.000000 -0.000004 18.098495
								CHANNELS 3 Xrotation Yrotation Zrotation
								JOINT RightForeArmRoll
								{
									OFFSET 0.000000 0.000000 6.972794
									CHANNELS 3 Xrotation Yrotation Zrotation
									JOINT RightHand
									{
										OFFSET 0.000000 0.000000 13.992905
										CHANNELS 3 Xrotation Yrotation Zrotation
										End Site
										{
											OFFSET 0.000000 0.000000 0.100006
										}
									}
								}
							}
						}
					}
				}
				JOINT LeftShoulder
				{
					OFFSET 3.659161 0.509514 9.384682
					CHANNELS 3 Xrotation Yrotation Zrotation
					JOINT LeftArm
					{
						OFFSET 0.000000 -0.000004 12.308907
						CHANNELS 3 Xrotation Yrotation Zrotation
						JOINT LeftArmRoll
						{
							OFFSET 0.000000 0.000000 6.213745
							CHANNELS 3 Xrotation Yrotation Zrotation
							JOINT LeftForeArm
							{
								OFFSET 0.000000 -0.000004 18.098495
								CHANNELS 3 Xrotation Yrotation Zrotation
								JOINT LeftForeArmRoll
								{
									OFFSET 0.000000 0.000000 6.972794
									CHANNELS 3 Xrotation Yrotation Zrotation
									JOINT LeftHand
									{
										OFFSET 0.000000 0.000000 13.992905
										CHANNELS 3 Xrotation Yrotation Zrotation
										End Site
										{
											OFFSET 0.000000 0.000000 0.100006
										}
									}
								}
							}
						}
					}
				}
			}
		}
	}
	JOINT RightUpLeg
	{
		OFFSET -5.535149 0.851456 -1.014999
		CHANNELS 3 Xrotation Yrotation Zrotation
		JOINT RightUpLegRoll
		{
			OFFSET 0.000000 0.000000 16.407501
			CHANNELS 3 Xrotation Yrotation Zrotation
			JOINT RightLeg
			{
				OFFSET 0.000000 0.000004 -20.318100
				CHANNELS 3 Xrotation Yrotation Zrotation
				JOINT RightLegRoll
				{
					OFFSET 0.000000 -0.000004 20.384598
					CHANNELS 3 Xrotation Yrotation Zrotation
					JOINT RightFoot
					{
						OFFSET 0.000000 -0.000004 16.966797
						CHANNELS 3 Xrotation Yrotation Zrotation
						JOINT RightToeBase
						{
							OFFSET 0.000000 -0.000004 14.183403
							CHANNELS 3 Xrotation Yrotation Zrotation
							End Site
							{
								OFFSET 0.006012 0.791744 6.868896
							}
						}
					}
				}
			}
		}
	}
	JOINT LeftUpLeg
	{
		OFFSET 5.535149 0.851456 -1.014999
		CHANNELS 3 Xrotation Yrotation Zrotation
		JOINT LeftUpLegRoll
		{
			OFFSET 0.000000 0.000000 16.407600
			CHANNELS 3 Xrotation Yrotation Zrotation
			JOINT LeftLeg
			{
				OFFSET 0.000000 -0.000004 20.318100
				CHANNELS 3 Xrotation Yrotation Zrotation
				JOINT LeftLegRoll
				{
					OFFSET 0.000000 -0.000004 20.573105
					CHANNELS 3 Xrotation Yrotation Zrotation
					JOINT LeftFoot
					{
						OFFSET 0.000000 -0.000004 16.778305
						CHANNELS 3 Xrotation Yrotation Zrotation
						JOINT LeftToeBase
						{
							OFFSET 0.000000 0.000000 14.183395
							CHANNELS 3 Xrotation Yrotation Zrotation
							End Site
							{
								OFFSET -0.026943 0.791740 6.868896
							}
						}
					}
				}
			}
		}
	}
}
MOTION
Frames: 7
Frame Time: 0.041667
48.289600 7.003586 49.485508 -9.392929 -0.569767 -0.782290 2.506769 0.021052 -0.403497 9.015822 0.036887 -0.807503 10.660904 0.027211 -0.807889 3.122779 4.894896 2.242687 13.511071 0.521038 1.223375 -10.754043 -60.110548 -12.724463 124.496426 -39.606054 95.411008 0.000000 0.000003 -0.000011 56.226223 -15.498049 6.332093 -0.000013 -0.000012 -3.000000 -4.999676 -7.998769 -0.000069 -23.052087 66.101341 27.046630 111.693619 47.336469 -96.242310 -0.000000 -0.000002 -0.000003 53.388648 13.047032 -4.370787 0.000014 -0.000007 2.999989 -4.999786 7.998690 -0.000050 -78.523331 174.821000 -3.156481 179.999991 0.000005 -0.737997 101.285954 4.202264 1.802606 -0.000001 -0.000001 0.661095 61.911464 4.753439 7.207110 25.456953 -7.353891 0.000011 -79.224703 178.680795 2.743884 0.000011 -0.000004 -1.094890 -86.562805 -4.414683 -1.738477 -0.000000 0.000009 -1.271570 66.465042 -6.026843 -4.384613 25.456955 7.352287 -0.000002 
48.279099 7.006287 49.472095 -9.353294 -0.569103 -0.786867 2.503657 0.018981 -0.402271 9.008804 0.031652 -0.804908 10.653803 0.022007 -0.805232 3.138552 4.933836 2.242150 13.503240 0.507703 1.218833 -10.742260 -60.034221 -12.706562 124.597089 -39.579939 95.517798 -0.000001 0.000002 -0.000010 56.244265 -15.483629 6.323918 -0.000013 -0.000013 -3.000000 -4.999675 -7.998772 -0.000068 -23.004472 66.110432 26.992095 111.698113 47.360064 -96.263388 -0.000001 0.000000 -0.000001 53.375391 13.048221 -4.370109 0.000015 -0.000007 2.999990 -4.999785 7.998689 -0.000049 -78.564989 174.810222 -3.159461 179.999991 0.000005 -0.737997 101.283311 4.202185 1.803709 0.000000 -0.000002 0.661257 61.914968 4.755789 7.202245 25.456953 -7.353891 0.000010 -79.267754 178.675618 2.745823 0.000011 -0.000004 -1.094890 -86.566487 -4.411202 -1.737225 -0.000001 0.000009 -1.272330 66.468826 -6.028809 -4.380717 25.456952 7.352287 -0.000002 
48.288895 6.993832 49.467201 -9.313727 -0.568645 -0.791460 2.500469 0.017000 -0.401094 9.001582 0.026551 -0.802416 10.646601 0.016937 -0.802679 3.154746 4.972611 2.241504 13.495614 0.494449 1.214235 -10.729174 -59.958809 -12.687128 124.697329 -39.554411 95.623693 -0.000000 0.000004 -0.000009 56.262649 -15.469470 6.316008 -0.000012 -0.000014 -3.000001 -4.999675 -7.998769 -0.000066 -22.955424 66.119407 26.935937 111.702362 47.384994 -96.285061 0.000001 -0.000000 -0.000002 53.362236 13.049048 -4.369268 0.000017 -0.000006 2.999991 -4.999784 7.998689 -0.000049 -78.606742 174.799622 -3.161110 179.999991 0.000005 -0.737997 101.280736 4.201908 1.804828 0.000001 -0.000001 0.661488 61.919012 4.758297 7.196993 25.456953 -7.353889 0.000010 -79.310920 178.670345 2.748417 0.000011 -0.000004 -1.094890 -86.569970 -4.407700 -1.735861 -0.000001 0.000009 -1.273090 66.472412 -6.030778 -4.376732 25.456953 7.352287 -0.000002 
48.283501 6.993740 49.466599 -9.274188 -0.568332 -0.796064 2.497238 0.015082 -0.399951 8.994231 0.021545 -0.799995 10.639304 0.011960 -0.800197 3.171233 5.011263 2.240787 13.488186 0.481249 1.209598 -10.715164 -59.883984 -12.666599 124.797187 -39.529522 95.728626 0.000001 0.000002 -0.000008 56.281117 -15.455535 6.308238 -0.000013 -0.000016 -3.000000 -4.999676 -7.998772 -0.000068 -22.905589 66.128580 26.878893 111.707170 47.410635 -96.308058 -0.000001 -0.000002 -0.000003 53.349149 13.049727 -4.368478 0.000015 -0.000006 2.999990 -4.999785 7.998687 -0.000051 -78.648576 174.789459 -3.163004 179.999991 0.000005 -0.737997 101.278339 4.201473 1.804961 -0.000000 -0.000001 0.661767 61.923397 4.760946 7.191463 25.456957 -7.353891 0.000010 -79.354080 178.665331 2.749685 0.000011 -0.000004 -1.094890 -86.573385 -4.404137 -1.734602 -0.000001 0.000009 -1.273840 66.475888 -6.032775 -4.372756 25.456957 7.352287 -0.000002 
48.283901 6.994862 49.465897 -9.234686 -0.568105 -0.800675 2.493979 0.013200 -0.398828 8.986791 0.016592 -0.797616 10.631802 0.007036 -0.797759 3.187907 5.049844 2.239996 13.480756 0.468079 1.204932 -10.700716 -59.809610 -12.645524 124.896375 -39.505080 95.832520 0.000002 0.000004 -0.000006 56.299726 -15.441687 6.300555 -0.000014 -0.000015 -3.000001 -4.999677 -7.998766 -0.000067 -22.855124 66.137630 26.821135 111.712265 47.436620 -96.331957 0.000000 -0.000000 -0.000003 53.336018 13.050284 -4.367431 0.000015 -0.000005 2.999989 -4.999785 7.998689 -0.000051 -78.690398 174.779459 -3.164673 179.999991 0.000005 -0.737997 101.275914 4.200807 1.805115 -0.000001 -0.000002 0.662075 61.927884 4.763672 7.185847 25.456953 -7.353890 0.000010 -79.397268 178.660031 2.752521 0.000011 -0.000004 -1.094890 -86.576746 -4.400539 -1.733239 -0.000001 0.000009 -1.274590 66.479372 -6.034729 -4.368872 25.456952 7.352289 -0.000002 
48.284000 6.989147 49.463303 -9.195186 -0.567904 -0.805289 2.490708 0.011326 -0.397709 8.979341 0.011652 -0.795247 10.624402 0.002125 -0.795332 3.204613 5.088413 2.239190 13.473336 0.454919 1.200258 -10.686197 -59.735250 -12.624341 124.995494 -39.480457 95.936181 0.000003 0.000003 -0.000008 56.318349 -15.427830 6.292868 -0.000013 -0.000015 -3.000001 -4.999677 -7.998768 -0.000067 -22.804490 66.146673 26.763190 111.716405 47.463073 -96.354551 0.000001 -0.000001 -0.000003 53.322884 13.050831 -4.366481 0.000016 -0.000006 2.999990 -4.999786 7.998689 -0.000052 -78.732315 174.769405 -3.165840 179.999991 0.000005 -0.737997 101.273517 4.200370 1.806246 -0.000001 -0.000002 0.662389 61.932467 4.766382 7.180222 25.456959 -7.353891 0.000011 -79.440551 178.655018 2.753975 0.000011 -0.000004 -1.094890 -86.580086 -4.396925 -1.731870 -0.000001 0.000009 -1.275340 66.482746 -6.036703 -4.364898 25.456948 7.352288 -0.000001 
48.276299 7.035328 49.480103 -9.155671 -0.567670 -0.809899 2.487453 0.009435 -0.396581 8.971932 0.006684 -0.792860 10.617004 -0.002814 -0.792886 3.221241 5.127010 2.238367 13.465906 0.441745 1.195595 -10.672060 -59.660760 -12.603594 125.095133 -39.455001 96.040840 0.000002 0.000004 -0.000005 56.336862 -15.414021 6.285050 -0.000013 -0.000013 -3.000000 -4.999676 -7.998765 -0.000067 -22.754131 66.155771 26.705555 111.721418 47.488980 -96.378108 0.000001 -0.000001 -0.000001 53.309780 13.051445 -4.365513 0.000015 -0.000007 2.999989 -4.999788 7.998689 -0.000052 -78.774122 174.759474 -3.168092 179.999991 0.000005 -0.737997 101.271181 4.199735 1.806395 -0.000001 -0.000001 0.662690 61.937050 4.769044 7.174586 25.456955 -7.353891 0.000011 -79.483745 178.649882 2.755966 0.000011 -0.000004 -1.094890 -86.583392 -4.393408 -1.730505 -0.000001 0.000009 -1.276090 66.486223 -6.038696 -4.360923 25.456955 7.352289 -0.000002 
